#!OML:ASF I:\Actors\actors\Patient Classification 1\Patient 1\Session 1\Subject1.ASF
:FULLY-SPECIFIED
:DEGREES
1522
root 0.366972 17.528 7.67908 14.1435 -6.40446 -6.33216
lowerback 6.07723 1.92532 10.3067
upperback -3.53547 3.70711 3.06894
thorax -6.74607 1.41837 -2.94106
lowerneck 3.54594 -4.21546 0.815154
upperneck 14.6613 -4.71907 -8.58862
head 3.9611 -2.62206 -3.15189
rclavicle -3.65764e-014 -7.87187e-014
rhumerus 40.3664 11.7198 -47.2231
rradius 119.56
rwrist -58.2402
rhand 31.1112 -26.5054
rfingers 7.12502
rthumb 54.7031 -44.8566
lclavicle -3.65764e-014 -7.87187e-014
lhumerus -2.56431 -63.0739 56.8867
lradius 108.082
lwrist 3.05385
lhand -35.601 -27.3632
lfingers 7.12502
lthumb -8.72476 2.4365
rfemur -13.4402 34.4174 13.098
rtibia 0.564025
rfoot -9.74056 -31.5557
rtoes 0.723903
lfemur -1.92912 -53.9816 -9.79966
ltibia -5.32304
lfoot -51.7551 63.6012
ltoes 32.5297
1523
root 0.366786 17.5295 7.67711 14.1648 -6.06829 -6.34536
lowerback 6.13679 1.84591 10.4313
upperback -3.46888 3.61858 3.13163
thorax -6.71816 1.37397 -2.93577
lowerneck 3.84871 -4.05521 0.782687
upperneck 14.1555 -4.49508 -8.98607
head 3.72899 -2.51126 -3.25013
rclavicle -8.44835e-015 -5.56597e-015
rhumerus 41.1236 10.0662 -46.113
rradius 119.717
rwrist -58.1275
rhand 32.2788 -24.8874
rfingers 7.12502
rthumb 55.7432 -42.4745
lclavicle -8.44835e-015 -5.56597e-015
lhumerus -2.5024 -63.3313 56.7929
lradius 107.898
lwrist 2.15053
lhand -36.9009 -27.3827
lfingers 7.12502
lthumb -9.97906 2.36078
rfemur -13.3934 34.4722 13.1308
rtibia 0.549866
rfoot -9.91646 -31.8707
rtoes 0.879777
lfemur -2.26555 -54.1647 -9.48691
ltibia -5.23472
lfoot -51.1845 63.7523
ltoes 32.0665
1524
root 0.364624 17.5301 7.67557 14.1832 -5.70122 -6.35606
lowerback 6.17034 1.7501 10.5037
upperback -3.39204 3.5005 3.21884
thorax -6.67184 1.31944 -2.87165
lowerneck 4.1671 -3.92146 0.926277
upperneck 13.682 -4.28547 -9.63232
head 3.50059 -2.40503 -3.47086
rclavicle 3.06128e-014 4.92986e-014
rhumerus 41.8143 8.38346 -45.0341
rradius 119.933
rwrist -58.2386
rhand 33.8873 -23.6163
rfingers 7.12502
rthumb 57.1637 -40.0651
lclavicle 3.06128e-014 4.92986e-014
lhumerus -2.4418 -63.4252 56.7271
lradius 107.795
lwrist 2.15894
lhand -37.3106 -27.6255
lfingers 7.12502
lthumb -10.3742 2.09858
rfemur -13.3406 34.5489 13.1752
rtibia 0.552794
rfoot -10.0801 -32.2413
rtoes 0.955381
lfemur -2.58227 -54.3733 -9.16231
ltibia -5.19354
lfoot -50.5591 63.9132
ltoes 31.5781
1525
root 0.360843 17.5306 7.67662 14.2197 -5.3207 -6.40052
lowerback 6.16507 1.65265 10.5552
upperback -3.30425 3.37382 3.34043
thorax -6.59523 1.26435 -2.75714
lowerneck 4.57772 -3.72252 1.12783
upperneck 13.1838 -3.99245 -10.3217
head 3.25455 -2.25005 -3.71709
rclavicle -1.47101e-014 1.35174e-014
rhumerus 42.4529 6.72301 -43.9922
rradius 120.168
rwrist -58.7008
rhand 36.2707 -22.5135
rfingers 7.12502
rthumb 59.2385 -37.0691
lclavicle -1.47101e-014 1.35174e-014
lhumerus -2.38987 -63.3263 56.7212
lradius 107.755
lwrist 2.76868
lhand -36.7476 -28.3487
lfingers 7.12502
lthumb -9.83116 1.40182
rfemur -13.3026 34.7245 13.2453
rtibia 0.574435
rfoot -10.3991 -32.7274
rtoes 1.48932
lfemur -2.94814 -54.5791 -8.74872
ltibia -5.1452
lfoot -49.7101 64.1692
ltoes 30.8666
1526
root 0.356137 17.5322 7.68059 14.2376 -4.97992 -6.41992
lowerback 6.17454 1.58524 10.5967
upperback -3.20986 3.28455 3.41194
thorax -6.51239 1.22732 -2.69447
lowerneck 4.92442 -3.55593 1.30711
upperneck 12.7807 -3.74031 -11.0102
head 3.05583 -2.11675 -3.96997
rclavicle -1.43125e-014 -5.64548e-014
rhumerus 42.8664 5.1114 -42.9688
rradius 120.431
rwrist -58.9739
rhand 39.5459 -21.1948
rfingers 7.12502
rthumb 62.0177 -32.6666
lclavicle -1.43125e-014 -5.64548e-014
lhumerus -2.18487 -63.266 56.505
lradius 107.779
lwrist 3.45995
lhand -35.7989 -29.43
lfingers 7.12502
lthumb -8.91577 0.361646
rfemur -13.2216 34.9148 13.3031
rtibia 0.551294
rfoot -10.6973 -33.167
rtoes 2.04433
lfemur -3.1963 -54.7645 -8.46908
ltibia -5.10968
lfoot -49.0927 64.3647
ltoes 30.2483
1527
root 0.351548 17.5341 7.68437 14.2222 -4.69388 -6.41338
lowerback 6.22988 1.53845 10.6634
upperback -3.10431 3.22631 3.4156
thorax -6.43495 1.20281 -2.72212
lowerneck 5.1605 -3.47618 1.5084
upperneck 12.4887 -3.59037 -11.7947
head 2.90972 -2.03885 -4.27412
rclavicle -8.34896e-015 -2.54444e-014
rhumerus 43.0918 3.57538 -41.8851
rradius 120.657
rwrist -58.7011
rhand 43.4592 -19.3368
rfingers 7.12502
rthumb 65.1931 -26.1888
lclavicle -8.34896e-015 -2.54444e-014
lhumerus -1.86253 -63.2136 56.0748
lradius 107.843
lwrist 4.20723
lhand -34.7457 -30.434
lfingers 7.12502
lthumb -7.8993 -0.601632
rfemur -13.1039 35.0493 13.3576
rtibia 0.507197
rfoot -10.8935 -33.5157
rtoes 2.3877
lfemur -3.27124 -54.9183 -8.35705
ltibia -5.12415
lfoot -48.9251 64.3322
ltoes 30.0895
